#!OML:ASF E:\pregnant2\Project 1\Capture day 1\Session 1\pregnant2.ASF
:FULLY-SPECIFIED
:DEGREES
644
root 1.78359 16.9473 23.5661 -148.403 30.2184 -181.831
lowerback -16.5419 -1.33094 -3.25382
upperback -14.5539 1.00289 -0.257076
thorax -6.44643 1.83294 1.53201
lowerneck -12.1668 -9.03322 -11.8495
upperneck 27.1621 -11.7301 9.58378
head 12.2941 -4.92943 3.95605
rclavicle -2.44443e-015 -2.13694e-014
rhumerus -56.8747 25.1698 -93.8503
rradius 70.6241
rwrist -2.97638
rhand -8.97859 -12.5086
rfingers 7.12502
rthumb 16.967 -41.7875
lclavicle -2.44443e-015 -2.13694e-014
lhumerus -64.4263 -29.8511 111.264
lradius 59.3279
lwrist 15.7565
lhand 15.8888 31.7285
lfingers 7.12502
lthumb 40.6876 56.7434
rfemur -58.1983 3.66879 23.0935
rtibia 30.4741
rfoot -20.8505 -39.496
rtoes 33.3468
lfemur -39.9747 -7.46726 -25.7579
ltibia 29.3429
lfoot -18.6866 11.0184
ltoes -13.9833
645
root 1.75491 16.9532 23.5976 -148.329 30.3055 -181.705
lowerback -16.5464 -1.30873 -3.12249
upperback -14.5465 1.01295 -0.228967
thorax -6.43451 1.82551 1.49032
lowerneck -12.2867 -9.02661 -11.775
upperneck 27.0517 -11.743 9.60671
head 12.272 -4.92906 3.94252
rclavicle 1.11739e-013 3.62782e-014
rhumerus -57.126 25.195 -94.1445
rradius 71.14
rwrist -3.07218
rhand -8.31536 -12.3598
rfingers 7.12502
rthumb 17.6054 -41.5827
lclavicle 1.11739e-013 3.62782e-014
lhumerus -64.4706 -29.9575 111.339
lradius 59.3502
lwrist 15.8108
lhand 15.7388 31.74
lfingers 7.12502
lthumb 40.5466 56.7988
rfemur -58.2287 4.21301 22.3101
rtibia 30.5786
rfoot -19.0428 -38.7352
rtoes 31.6628
lfemur -40.1619 -7.555 -25.6195
ltibia 29.3525
lfoot -18.4863 11.1237
ltoes -13.7702
646
root 1.72722 16.9611 23.6282 -148.267 30.3777 -181.583
lowerback -16.5481 -1.30167 -3.00216
upperback -14.5359 1.00325 -0.194062
thorax -6.41969 1.80895 1.46005
lowerneck -12.3801 -9.00303 -11.672
upperneck 26.926 -11.7362 9.61968
head 12.2327 -4.9191 3.92443
rclavicle -2.84479e-014 -4.53229e-014
rhumerus -57.3937 25.1999 -94.4574
rradius 71.5959
rwrist -3.05452
rhand -7.74179 -12.5448
rfingers 7.12502
rthumb 18.1573 -41.7173
lclavicle -2.84479e-014 -4.53229e-014
lhumerus -64.5248 -30.0058 111.432
lradius 59.3228
lwrist 15.7789
lhand 15.4306 31.6528
lfingers 7.12502
lthumb 40.2568 56.8008
rfemur -58.2455 4.7603 21.4864
rtibia 30.687
rfoot -17.4445 -37.8371
rtoes 30.2287
lfemur -40.3312 -7.66073 -25.4714
ltibia 29.3635
lfoot -18.2894 11.2394
ltoes -13.5941
647
root 1.70065 16.9685 23.6575 -148.197 30.4655 -181.421
lowerback -16.5599 -1.29839 -2.8685
upperback -14.5365 0.991486 -0.111368
thorax -6.41343 1.79436 1.47281
lowerneck -12.4444 -8.95789 -11.6428
upperneck 26.866 -11.6788 9.62663
head 12.2124 -4.89251 3.92787
rclavicle -6.12816e-015 -2.40778e-014
rhumerus -57.7133 25.2776 -94.7648
rradius 71.9812
rwrist -3.04295
rhand -7.36815 -12.5082
rfingers 7.12502
rthumb 18.5167 -41.6469
lclavicle -6.12816e-015 -2.40778e-014
lhumerus -64.5617 -29.9991 111.541
lradius 59.2882
lwrist 15.7346
lhand 15.3217 31.6264
lfingers 7.12502
lthumb 40.1544 56.8057
rfemur -58.2418 5.3491 20.6637
rtibia 30.7906
rfoot -15.9148 -36.7942
rtoes 28.9048
lfemur -40.4906 -7.72121 -25.3034
ltibia 29.3864
lfoot -18.0949 11.349
ltoes -13.4902
648
root 1.67501 16.9761 23.6867 -148.127 30.5443 -181.285
lowerback -16.5445 -1.2929 -2.77635
upperback -14.5803 0.996872 -0.0400393
thorax -6.47231 1.79765 1.49569
lowerneck -12.4318 -8.93541 -11.6239
upperneck 26.7759 -11.6594 9.64829
head 12.1713 -4.88398 3.93415
rclavicle -3.62627e-014 2.26615e-014
rhumerus -58.1095 25.2423 -95.0575
rradius 72.3247
rwrist -2.87934
rhand -6.99775 -12.0622
rfingers 7.12502
rthumb 18.873 -41.1666
lclavicle -3.62627e-014 2.26615e-014
lhumerus -64.7073 -30.0132 111.753
lradius 59.2338
lwrist 15.6325
lhand 15.1039 31.5261
lfingers 7.12502
lthumb 39.9494 56.7674
rfemur -58.2552 5.94107 19.7941
rtibia 30.8855
rfoot -14.2343 -35.6591
rtoes 27.2702
lfemur -40.6655 -7.82934 -25.1264
ltibia 29.4088
lfoot -17.9092 11.4732
ltoes -13.252
649
root 1.65062 16.9836 23.7156 -148.041 30.6319 -181.121
lowerback -16.5456 -1.30545 -2.68504
upperback -14.5744 0.966804 0.0600691
thorax -6.46452 1.77742 1.54888
lowerneck -12.5679 -8.88634 -11.5291
upperneck 26.7298 -11.5926 9.59605
head 12.1609 -4.85227 3.90333
rclavicle 3.26457e-014 8.05078e-015
rhumerus -58.363 25.3095 -95.328
rradius 72.583
rwrist -2.7016
rhand -6.78633 -12.0364
rfingers 7.12502
rthumb 19.0763 -41.1209
lclavicle 3.26457e-014 8.05078e-015
lhumerus -64.6899 -29.9667 111.825
lradius 59.2031
lwrist 15.5491
lhand 15.1215 31.4653
lfingers 7.12502
lthumb 39.966 56.7016
rfemur -58.2744 6.53052 18.9579
rtibia 30.9662
rfoot -12.55 -34.4016
rtoes 25.445
lfemur -40.8354 -7.90368 -24.9393
ltibia 29.4374
lfoot -17.7387 11.5889
ltoes -13.043
